#!OML:ASF H:\MichaelJackson\Top Level 1\Subject 1\Session 1\male.ASF
:FULLY-SPECIFIED
:DEGREES
667
root -9.31796 16.6421 -4.03892 -170.954 -4.3251 -181.433
lowerback 3.3511 2.7667 -2.0775
upperback 4.11793 3.39176 2.31187
thorax 2.09655 1.51128 3.4831
lowerneck -13.5293 -2.94884 -1.08332
upperneck 31.8974 -6.63097 -0.0920898
head 12.923 -3.86444 -1.01552
rclavicle 1.59028e-014 -4.85035e-014
rhumerus -6.4452 4.3367 -79.2234
rradius 41.8225
rwrist 39.5259
rhand -46.3703 -30.4455
rfingers 7.12502
rthumb -19.1018 -59.5275
lclavicle 1.59028e-014 -4.85035e-014
lhumerus -69.63 -29.3472 109.071
lradius 104.887
lwrist 13.2616
lhand -28.2651 21.1583
lfingers 7.12502
lthumb -1.64191 51.1318
rfemur -46.2661 -8.77655 22.9591
rtibia 43.9699
rfoot -0.908468 -3.3732
rtoes 15.5602
lfemur -23.894 11.4636 -24.5529
ltibia 48.4376
lfoot -29.4261 4.39201
ltoes -0.0557208
668
root -9.32847 16.6347 -3.93774 -170.956 -4.39353 -181.524
lowerback 3.40341 2.7361 -1.99725
upperback 4.12001 3.35329 2.23461
thorax 2.08113 1.49568 3.35678
lowerneck -13.6662 -2.88422 -0.949273
upperneck 32.1332 -6.53402 -0.329727
head 13.0354 -3.84151 -1.12833
rclavicle -7.55382e-015 -2.46493e-014
rhumerus -7.83936 4.665 -79.442
rradius 42.7035
rwrist 38.6982
rhand -45.3316 -30.5732
rfingers 7.12502
rthumb -18.1028 -59.7508
lclavicle -7.55382e-015 -2.46493e-014
lhumerus -67.5843 -30.0267 108.353
lradius 105.332
lwrist 12.7244
lhand -27.3424 21.4926
lfingers 7.12502
lthumb -0.750825 51.4711
rfemur -47.0459 -8.91106 22.6887
rtibia 44.855
rfoot 0.156389 -2.38173
rtoes 13.5891
lfemur -23.7406 11.3205 -24.7587
ltibia 47.5584
lfoot -29.8067 4.47861
ltoes 0.675674
669
root -9.3351 16.6264 -3.83748 -171.017 -4.33414 -181.526
lowerback 3.54779 2.67147 -1.97881
upperback 4.06913 3.26788 2.2082
thorax 1.95642 1.45711 3.31279
lowerneck -13.6431 -2.72035 -0.953755
upperneck 32.2867 -6.3057 -0.405657
head 13.0913 -3.76243 -1.12897
rclavicle -3.85642e-014 1.11319e-014
rhumerus -9.35727 5.16915 -79.7725
rradius 43.6576
rwrist 37.994
rhand -44.4151 -30.5507
rfingers 7.12502
rthumb -17.2207 -59.8077
lclavicle -3.85642e-014 1.11319e-014
lhumerus -65.656 -30.4099 107.621
lradius 105.849
lwrist 12.2626
lhand -25.3457 23.4386
lfingers 7.12502
lthumb 1.17766 53.4151
rfemur -47.8427 -8.83101 22.4845
rtibia 45.9461
rfoot 1.239 -1.31998
rtoes 11.4669
lfemur -23.6258 11.2088 -24.8662
ltibia 46.7916
lfoot -30.1365 4.61921
ltoes 1.86231
670
root -9.34891 16.6198 -3.73896 -171.088 -4.35842 -182
lowerback 3.69639 2.55674 -2.28319
upperback 4.07078 3.11345 2.02156
thorax 1.88057 1.37792 3.28812
lowerneck -13.6663 -2.62022 -0.853171
upperneck 32.46 -6.19116 -0.525319
head 13.1609 -3.72569 -1.18369
rclavicle 2.10712e-014 3.26007e-014
rhumerus -10.8049 5.57729 -80.1516
rradius 44.6296
rwrist 37.4213
rhand -43.5026 -31.0303
rfingers 7.12502
rthumb -16.3423 -60.3618
lclavicle 2.10712e-014 3.26007e-014
lhumerus -63.6383 -30.7802 106.8
lradius 106.442
lwrist 11.8646
lhand -24.8192 23.555
lfingers 7.12502
lthumb 1.68618 53.5281
rfemur -48.6686 -9.20373 21.8408
rtibia 47.3252
rfoot 2.33838 0.277397
rtoes 7.6974
lfemur -23.4476 11.002 -25.532
ltibia 46.1393
lfoot -30.3196 5.03467
ltoes 2.04197
671
root -9.34486 16.6139 -3.6359 -171.097 -4.5222 -182.035
lowerback 3.79647 2.41293 -2.34569
upperback 4.02615 2.92237 1.96609
thorax 1.79234 1.28488 3.2658
lowerneck -13.5863 -2.4996 -0.703075
upperneck 32.447 -6.03464 -0.603365
head 13.1292 -3.65436 -1.2136
rclavicle -4.37326e-015 7.95139e-015
rhumerus -12.2794 5.94844 -80.61
rradius 45.6597
rwrist 36.8953
rhand -42.5002 -31.3758
rfingers 7.12502
rthumb -15.377 -60.784
lclavicle -4.37326e-015 7.95139e-015
lhumerus -61.6318 -31.1693 105.874
lradius 107.011
lwrist 11.4811
lhand -24.6173 23.1121
lfingers 7.12502
lthumb 1.88116 53.0835
rfemur -49.5734 -9.14484 21.6029
rtibia 48.8762
rfoot 3.31436 0.814499
rtoes 8.4605
lfemur -23.6262 10.6907 -25.6483
ltibia 45.7406
lfoot -30.2106 5.36273
ltoes 1.6635
672
root -9.34639 16.6119 -3.53169 -171.102 -4.64722 -182.395
lowerback 3.9097 2.24818 -2.64113
upperback 4.03028 2.69839 1.79118
thorax 1.74506 1.16995 3.25327
lowerneck -13.6724 -2.4197 -0.794861
upperneck 32.4756 -5.9591 -0.405659
head 13.1713 -3.60588 -1.11443
rclavicle 3.10104e-014 4.13472e-014
rhumerus -13.6367 6.28404 -81.1277
rradius 46.6537
rwrist 36.3891
rhand -41.7531 -31.698
rfingers 7.12502
rthumb -14.6573 -61.1599
lclavicle 3.10104e-014 4.13472e-014
lhumerus -59.5615 -31.5345 104.845
lradius 107.655
lwrist 11.2422
lhand -24.5966 22.8284
lfingers 7.12502
lthumb 1.90117 52.7997
rfemur -50.5238 -9.30289 21.0498
rtibia 50.6448
rfoot 4.28123 1.5738
rtoes 9.6587
lfemur -23.8748 10.413 -26.1496
ltibia 45.4995
lfoot -29.882 5.6628
ltoes 1.04556
673
root -9.34262 16.6089 -3.42224 -171.105 -4.94428 -182.631
lowerback 4.10783 2.08136 -2.75512
upperback 3.98873 2.47369 1.61239
thorax 1.61149 1.06156 3.13163
lowerneck -13.4374 -2.34305 -0.631443
upperneck 32.2242 -5.86977 -0.353175
head 13.0105 -3.53918 -1.0924
rclavicle -3.97569e-015 3.97569e-015
rhumerus -15.1824 6.34226 -81.6865
rradius 47.8212
rwrist 35.9466
rhand -40.7886 -31.7975
rfingers 7.12502
rthumb -13.7279 -61.3246
lclavicle -3.97569e-015 3.97569e-015
lhumerus -57.607 -32.1012 103.853
lradius 108.187
lwrist 10.9367
lhand -24.7248 22.4422
lfingers 7.12502
lthumb 1.77737 52.4146
rfemur -51.4709 -9.51077 20.647
rtibia 52.5434
rfoot 5.23184 2.05777
rtoes 10.2695
lfemur -24.3196 10.1598 -26.4748
ltibia 45.4966
lfoot -29.5142 5.50423
ltoes 1.32475
674
root -9.33337 16.6075 -3.32217 -171.273 -5.15176 -182.926
lowerback 4.29148 1.94551 -3.0171
upperback 4.08466 2.27476 1.42104
thorax 1.62084 0.953354 3.08371
lowerneck -13.3542 -2.28722 -0.585052
upperneck 32.0433 -5.83877 -0.131921
head 12.9239 -3.48679 -1.00172
rclavicle -2.3059e-014 1.11319e-014
rhumerus -16.5596 6.37907 -82.2726
rradius 48.8755
rwrist 35.5211
rhand -40.0315 -31.8565
rfingers 7.12502
rthumb -12.9981 -61.4316
lclavicle -2.3059e-014 1.11319e-014
lhumerus -55.5503 -32.6985 102.728
lradius 108.738
lwrist 10.5048
lhand -25.273 21.5813
lfingers 7.12502
lthumb 1.24793 51.5574
rfemur -52.1811 -9.66217 20.1947
rtibia 54.5599
rfoot 6.6672 2.24661
rtoes 14.2894
lfemur -24.577 10.2062 -26.8127
ltibia 45.517
lfoot -29.1572 5.05792
ltoes 1.81998
675
root -9.32377 16.6043 -3.21847 -171.395 -5.56293 -183.132
lowerback 4.50453 1.76525 -3.08037
upperback 4.15725 2.01987 1.23984
thorax 1.6003 0.82237 2.93602
lowerneck -13.2428 -2.25035 -0.473461
upperneck 31.7939 -5.79657 -0.0274116
head 12.7961 -3.43424 -0.962111
rclavicle -3.79679e-014 9.54166e-015
rhumerus -18.0575 6.22548 -82.8501
rradius 50.146
rwrist 34.9625
rhand -39.0576 -31.7622
rfingers 7.12502
rthumb -12.0592 -61.3948
lclavicle -3.79679e-014 9.54166e-015
lhumerus -53.3708 -33.387 101.562
lradius 109.1
lwrist 9.92108
lhand -25.7719 21.0764
lfingers 7.12502
lthumb 0.766095 51.0547
rfemur -52.8863 -9.9941 19.8899
rtibia 56.6075
rfoot 7.58541 2.65336
rtoes 14.3345
lfemur -24.9548 10.2128 -27.0478
ltibia 45.6178
lfoot -28.8024 4.45843
ltoes 2.49423
676
root -9.31229 16.6125 -3.12337 -171.899 -6.7281 -183.357
lowerback 5.02739 1.3386 -3.06031
upperback 4.40158 1.40634 1.11262
thorax 1.6097 0.500168 2.80729
lowerneck -13.2926 -2.19307 -0.389269
upperneck 31.6275 -5.75563 0.178114
head 12.7428 -3.3696 -0.887116
rclavicle -5.1684e-015 -1.19271e-014
rhumerus -19.4197 6.15335 -83.4318
rradius 51.3362
rwrist 34.3235
rhand -38.1984 -31.392
rfingers 7.12502
rthumb -11.2306 -61.0714
lclavicle -5.1684e-015 -1.19271e-014
lhumerus -50.9662 -33.9925 100.195
lradius 109.443
lwrist 9.26306
lhand -26.2387 20.7567
lfingers 7.12502
lthumb 0.315248 50.7362
rfemur -52.9015 -10.8784 19.5094
rtibia 58.6373
rfoot 8.32775 2.72806
rtoes 14.5983
lfemur -24.8146 9.77792 -27.0898
ltibia 45.7144
lfoot -28.6023 3.68173
ltoes 2.5734
677
root -9.30127 16.6117 -3.02394 -171.986 -6.82814 -183.338
lowerback 5.11904 1.26334 -2.98677
upperback 4.4624 1.30001 0.970677
thorax 1.63338 0.446406 2.62253
lowerneck -13.1639 -2.13397 -0.309301
upperneck 31.4385 -5.71159 0.34572
head 12.6412 -3.31666 -0.821028
rclavicle -1.03368e-014 -7.95139e-016
rhumerus -21.0023 6.02166 -84.0143
rradius 52.6285
rwrist 33.5603
rhand -37.2825 -31.1253
rfingers 7.12502
rthumb -10.3472 -60.8507
lclavicle -1.03368e-014 -7.95139e-016
lhumerus -48.5503 -34.6466 98.8519
lradius 109.527
lwrist 8.50145
lhand -26.8045 19.7013
lfingers 7.12502
lthumb -0.231264 49.6809
rfemur -53.5 -10.8918 19.4497
rtibia 60.5816
rfoot 9.29759 2.95432
rtoes 14.685
lfemur -25.203 10.0493 -27.1138
ltibia 45.7567
lfoot -28.3089 3.04879
ltoes 3.39182
678
root -9.28849 16.6019 -2.91527 -171.625 -6.58482 -183.212
lowerback 4.83118 1.34164 -2.85403
upperback 4.39928 1.43054 0.83856
thorax 1.72558 0.521558 2.41153
lowerneck -13.1889 -2.12181 -0.330358
upperneck 31.3369 -5.71624 0.529126
head 12.6125 -3.29046 -0.745284
rclavicle -1.11319e-014 -1.43125e-014
rhumerus -22.5636 5.70849 -84.4872
rradius 53.9247
rwrist 32.7077
rhand -36.2612 -30.9207
rfingers 7.12502
rthumb -9.36186 -60.6928
lclavicle -1.11319e-014 -1.43125e-014
lhumerus -45.9629 -35.4197 97.5422
lradius 109.567
lwrist 7.67921
lhand -27.4282 19.6163
lfingers 7.12502
lthumb -0.833664 49.5945
rfemur -54.6438 -10.551 19.5518
rtibia 62.429
rfoot 10.5067 3.24749
rtoes 14.6135
lfemur -26.1506 10.4083 -27.1802
ltibia 45.7458
lfoot -27.9193 2.58566
ltoes 4.02967
679
root -9.2827 16.617 -2.82638 -172.095 -7.38028 -183.279
lowerback 5.22729 1.01217 -2.78878
upperback 4.57647 0.958037 0.794512
thorax 1.71932 0.274388 2.34209
lowerneck -13.055 -2.00842 -0.184922
upperneck 31.314 -5.60273 0.535189
head 12.5701 -3.22953 -0.748247
rclavicle 1.03368e-014 7.95139e-016
rhumerus -24.1167 5.93656 -84.9938
rradius 55.1724
rwrist 31.6081
rhand -34.9224 -31.1135
rfingers 7.12502
rthumb -8.06985 -60.9394
lclavicle 1.03368e-014 7.95139e-016
lhumerus -43.3253 -35.8012 96.2513
lradius 109.383
lwrist 6.90555
lhand -28.1726 19.0604
lfingers 7.12502
lthumb -1.55263 49.0345
rfemur -54.419 -11.1776 19.3235
rtibia 64.171
rfoot 11.356 3.50653
rtoes 14.2812
lfemur -25.8727 10.1179 -27.1135
ltibia 45.5878
lfoot -27.7418 1.94983
ltoes 4.57793
680
root -9.27851 16.6281 -2.73701 -172.356 -7.26049 -183.128
lowerback 5.29753 1.04067 -2.57527
upperback 4.72415 0.986911 0.697398
thorax 1.83563 0.285274 2.12092
lowerneck -13.0022 -1.93249 -0.0388495
upperneck 31.3078 -5.54001 0.555855
head 12.5528 -3.18426 -0.755135
rclavicle 4.17448e-015 1.11319e-014
rhumerus -25.614 6.02109 -85.4755
rradius 56.3058
rwrist 30.5617
rhand -33.9874 -31.4838
rfingers 7.12502
rthumb -7.16741 -61.3424
lclavicle 4.17448e-015 1.11319e-014
lhumerus -40.4906 -36.3327 94.8665
lradius 109.058
lwrist 6.23657
lhand -28.9795 18.5686
lfingers 7.12502
lthumb -2.33191 48.5356
rfemur -54.5129 -11.0054 19.3376
rtibia 65.8194
rfoot 12.3505 3.80193
rtoes 14.2981
lfemur -25.8496 10.3887 -26.9729
ltibia 45.3809
lfoot -27.6189 1.57438
ltoes 5.46356
681
root -9.27392 16.6379 -2.64506 -172.622 -7.10705 -182.999
lowerback 5.48512 1.04722 -2.45741
upperback 4.80674 0.98271 0.63313
thorax 1.81956 0.280918 1.98676
lowerneck -12.9086 -1.85441 -0.0310239
upperneck 31.382 -5.49982 0.672841
head 12.5679 -3.1602 -0.707566
rclavicle -1.39149e-014 -1.74931e-014
rhumerus -27.1463 6.25632 -85.9668
rradius 57.3575
rwrist 29.7215
rhand -33.2518 -31.9704
rfingers 7.12502
rthumb -6.45729 -61.852
lclavicle -1.39149e-014 -1.74931e-014
lhumerus -37.8413 -36.5822 93.6442
lradius 108.614
lwrist 5.55664
lhand -29.6396 17.3308
lfingers 7.12502
lthumb -2.96937 47.2899
rfemur -54.5269 -10.752 19.2857
rtibia 67.4042
rfoot 13.3221 3.98459
rtoes 14.4075
lfemur -25.7728 10.5132 -26.8473
ltibia 45.0654
lfoot -27.3231 1.45197
ltoes 5.69556
